<?xml version="1.0" encoding="UTF-8"?>
<!-- Generated by Pixelmator Pro 3.6.15 -->
<svg width="24" height="24" viewBox="0 0 24 24" xmlns="http://www.w3.org/2000/svg">
    <path id="Path" fill="none" stroke="none" d="M 0 0 L 24 0 L 24 24 L 0 24 Z"/>
    <filter id="filter1" x="0" y="0" width="24" height="24" filterUnits="userSpaceOnUse" primitiveUnits="userSpaceOnUse" color-interpolation-filters="sRGB">
        <feFlood flood-color="#000000" flood-opacity="1"/>
        <feComposite in2="SourceGraphic" operator="out"/>
        <feGaussianBlur stdDeviation="15"/>
        <feOffset dx="1.084077" dy="5.901252"/>
        <feComposite in2="SourceGraphic" operator="atop"/>
    </filter>
    <g id="Rounded-Rectangle" filter="url(#filter1)">
        <path id="path1" fill="#68645f" fill-rule="evenodd" stroke="none" d="M 1 3 C 1 4.10457 1.895431 5 3 5 L 21 5 C 22.10457 5 23 4.10457 23 3 C 23 1.895432 22.10457 1 21 1 L 3 1 C 1.895431 1 1 1.895432 1 3 Z"/>
        <path id="path2" fill="#000000" fill-opacity="0.883376" fill-rule="evenodd" stroke="none" d="M 3 5 C 1.895431 5 1 4.10457 1 3 C 1 1.895432 1.895431 1 3 1 L 21 1 C 22.10457 1 23 1.895432 23 3 C 23 4.10457 22.10457 5 21 5 L 3 5 Z"/>
    </g>
    <filter id="filter2" x="0" y="0" width="24" height="24" filterUnits="userSpaceOnUse" primitiveUnits="userSpaceOnUse" color-interpolation-filters="sRGB">
        <feFlood flood-color="#000000" flood-opacity="1"/>
        <feComposite in2="SourceGraphic" operator="out"/>
        <feGaussianBlur stdDeviation="15"/>
        <feOffset dx="1.084077" dy="5.901252"/>
        <feComposite in2="SourceGraphic" operator="atop"/>
    </filter>
    <g id="Rounded-Rectangle-copy" filter="url(#filter2)">
        <path id="path3" fill="#68645f" fill-rule="evenodd" stroke="none" d="M 1 9 C 1 10.104569 1.895431 11 3 11 L 21 11 C 22.10457 11 23 10.104569 23 9 C 23 7.895432 22.10457 7 21 7 L 3 7 C 1.895431 7 1 7.895432 1 9 Z"/>
        <path id="path4" fill="#000000" fill-opacity="0.883376" fill-rule="evenodd" stroke="none" d="M 3 11 C 1.895431 11 1 10.104569 1 9 C 1 7.895432 1.895431 7 3 7 L 21 7 C 22.10457 7 23 7.895432 23 9 C 23 10.104569 22.10457 11 21 11 L 3 11 Z"/>
    </g>
    <filter id="filter3" x="0" y="0" width="24" height="24" filterUnits="userSpaceOnUse" primitiveUnits="userSpaceOnUse" color-interpolation-filters="sRGB">
        <feFlood flood-color="#000000" flood-opacity="1"/>
        <feComposite in2="SourceGraphic" operator="out"/>
        <feGaussianBlur stdDeviation="15"/>
        <feOffset dx="1.084077" dy="5.901252"/>
        <feComposite in2="SourceGraphic" operator="atop"/>
    </filter>
    <g id="Rounded-Rectangle-copy-2" filter="url(#filter3)">
        <path id="path5" fill="#68645f" fill-rule="evenodd" stroke="none" d="M 1 15 C 1 16.104568 1.895431 17 3 17 L 21 17 C 22.10457 17 23 16.104568 23 15 C 23 13.895431 22.10457 13 21 13 L 3 13 C 1.895431 13 1 13.895431 1 15 Z"/>
        <path id="path6" fill="#000000" fill-opacity="0.883376" fill-rule="evenodd" stroke="none" d="M 3 17 C 1.895431 17 1 16.104568 1 15 C 1 13.895431 1.895431 13 3 13 L 21 13 C 22.10457 13 23 13.895431 23 15 C 23 16.104568 22.10457 17 21 17 L 3 17 Z"/>
    </g>
    <filter id="filter4" x="0" y="0" width="24" height="24" filterUnits="userSpaceOnUse" primitiveUnits="userSpaceOnUse" color-interpolation-filters="sRGB">
        <feFlood flood-color="#000000" flood-opacity="1"/>
        <feComposite in2="SourceGraphic" operator="out"/>
        <feGaussianBlur stdDeviation="15"/>
        <feOffset dx="1.084077" dy="5.901252"/>
        <feComposite in2="SourceGraphic" operator="atop"/>
    </filter>
    <g id="Rounded-Rectangle-copy-3" filter="url(#filter4)">
        <path id="path7" fill="#68645f" fill-rule="evenodd" stroke="none" d="M 1 21 C 1 22.104568 1.895431 23 3 23 L 15 23 C 16.104568 23 17 22.104568 17 21 C 17 19.895432 16.104568 19 15 19 L 3 19 C 1.895431 19 1 19.895432 1 21 Z"/>
        <path id="path8" fill="#000000" fill-opacity="0.883376" fill-rule="evenodd" stroke="none" d="M 3 23 C 1.895431 23 1 22.104568 1 21 C 1 19.895432 1.895431 19 3 19 L 15 19 C 16.104568 19 17 19.895432 17 21 C 17 22.104568 16.104568 23 15 23 L 3 23 Z"/>
    </g>
    <filter id="filter5" x="0" y="0" width="24" height="24" filterUnits="userSpaceOnUse" primitiveUnits="userSpaceOnUse" color-interpolation-filters="sRGB">
        <feFlood flood-color="#000000" flood-opacity="1"/>
        <feComposite in2="SourceGraphic" operator="out"/>
        <feGaussianBlur stdDeviation="15"/>
        <feOffset dx="1.084077" dy="5.901252"/>
        <feComposite in2="SourceGraphic" operator="atop"/>
    </filter>
    <g id="Rounded-Rectangle-copy-4" filter="url(#filter5)">
        <path id="path9" fill="#fffc67" fill-rule="evenodd" stroke="none" d="M 8 3 C 8 4.10457 8.895431 5 10 5 L 14 5 C 15.104569 5 16 4.10457 16 3 C 16 1.895432 15.104569 1 14 1 L 10 1 C 8.895431 1 8 1.895432 8 3 Z"/>
        <path id="path10" fill="#0066ff" fill-opacity="0.883376" fill-rule="evenodd" stroke="none" d="M 10 5 C 8.895431 5 8 4.10457 8 3 C 8 1.895432 8.895431 1 10 1 L 14 1 C 15.104569 1 16 1.895432 16 3 C 16 4.10457 15.104569 5 14 5 L 10 5 Z"/>
    </g>
    <filter id="filter6" x="0" y="0" width="24" height="24" filterUnits="userSpaceOnUse" primitiveUnits="userSpaceOnUse" color-interpolation-filters="sRGB">
        <feFlood flood-color="#000000" flood-opacity="1"/>
        <feComposite in2="SourceGraphic" operator="out"/>
        <feGaussianBlur stdDeviation="15"/>
        <feOffset dx="1.084077" dy="5.901252"/>
        <feComposite in2="SourceGraphic" operator="atop"/>
    </filter>
    <g id="Rounded-Rectangle-copy-5" filter="url(#filter6)">
        <path id="path11" fill="#fffc67" fill-rule="evenodd" stroke="none" d="M 4 15 C 4 16.104568 4.895431 17 6 17 L 10 17 C 11.104569 17 12 16.104568 12 15 C 12 13.895431 11.104569 13 10 13 L 6 13 C 4.895431 13 4 13.895431 4 15 Z"/>
        <path id="path12" fill="#0066ff" fill-opacity="0.883376" fill-rule="evenodd" stroke="none" d="M 6 17 C 4.895431 17 4 16.104568 4 15 C 4 13.895431 4.895431 13 6 13 L 10 13 C 11.104569 13 12 13.895431 12 15 C 12 16.104568 11.104569 17 10 17 L 6 17 Z"/>
    </g>
    <filter id="filter7" x="0" y="0" width="24" height="24" filterUnits="userSpaceOnUse" primitiveUnits="userSpaceOnUse" color-interpolation-filters="sRGB">
        <feFlood flood-color="#000000" flood-opacity="1"/>
        <feComposite in2="SourceGraphic" operator="out"/>
        <feGaussianBlur stdDeviation="15"/>
        <feOffset dx="1.084077" dy="5.901252"/>
        <feComposite in2="SourceGraphic" operator="atop"/>
    </filter>
    <g id="Rounded-Rectangle-copy-6" filter="url(#filter7)">
        <path id="path13" fill="#fffc67" fill-rule="evenodd" stroke="none" d="M 13 9 C 13 10.104569 13.895431 11 15 11 L 19 11 C 20.104568 11 21 10.104569 21 9 C 21 7.895432 20.104568 7 19 7 L 15 7 C 13.895431 7 13 7.895432 13 9 Z"/>
        <path id="path14" fill="#0066ff" fill-opacity="0.883376" fill-rule="evenodd" stroke="none" d="M 15 11 C 13.895431 11 13 10.104569 13 9 C 13 7.895432 13.895431 7 15 7 L 19 7 C 20.104568 7 21 7.895432 21 9 C 21 10.104569 20.104568 11 19 11 L 15 11 Z"/>
    </g>
    <filter id="filter8" x="0" y="0" width="24" height="24" filterUnits="userSpaceOnUse" primitiveUnits="userSpaceOnUse" color-interpolation-filters="sRGB">
        <feFlood flood-color="#000000" flood-opacity="1"/>
        <feComposite in2="SourceGraphic" operator="out"/>
        <feGaussianBlur stdDeviation="15"/>
        <feOffset dx="1.084077" dy="5.901252"/>
        <feComposite in2="SourceGraphic" operator="atop"/>
    </filter>
    <g id="Rounded-Rectangle-copy-7" filter="url(#filter8)">
        <path id="path15" fill="#fffc67" fill-rule="evenodd" stroke="none" d="M 7 21 C 7 22.104568 7.895431 23 9 23 L 11 23 C 12.104569 23 13 22.104568 13 21 C 13 19.895432 12.104569 19 11 19 L 9 19 C 7.895431 19 7 19.895432 7 21 Z"/>
        <path id="path16" fill="#0066ff" fill-opacity="0.883376" fill-rule="evenodd" stroke="none" d="M 9 23 C 7.895431 23 7 22.104568 7 21 C 7 19.895432 7.895431 19 9 19 L 11 19 C 12.104569 19 13 19.895432 13 21 C 13 22.104568 12.104569 23 11 23 L 9 23 Z"/>
    </g>
</svg>
